<?xml version="1.0" standalone="no"?>
<!DOCTYPE svg PUBLIC "-//W3C//DTD SVG 20010904//EN"
 "http://www.w3.org/TR/2001/REC-SVG-20010904/DTD/svg10.dtd">
<svg version="1.0" xmlns="http://www.w3.org/2000/svg"
 width="1000.000000pt" height="1000.000000pt" viewBox="0 0 1000.000000 1000.000000"
 preserveAspectRatio="xMidYMid meet">
<metadata>
Created by potrace 1.14, written by Peter Selinger 2001-2017
</metadata>
<g transform="translate(0.000000,1000.000000) scale(0.100000,-0.100000)"
fill="#000000" stroke="none">
<path d="M2210 9453 c-189 -19 -371 -62 -528 -127 -637 -261 -1062 -834 -1132
-1523 -8 -76 -10 -855 -8 -2633 l4 -2525 21 -108 c64 -323 183 -583 381 -832
87 -110 695 -708 797 -784 235 -176 484 -285 795 -348 79 -16 274 -17 2620
-20 1735 -3 2570 -1 2645 7 227 21 410 73 621 174 129 62 265 147 354 220 90
75 251 241 307 319 32 43 75 100 96 125 50 62 147 261 190 392 41 124 72 270
84 395 5 50 6 1207 3 2635 -7 2540 -7 2545 -28 2655 -58 298 -163 539 -339
778 -105 141 -698 734 -840 840 -239 177 -475 279 -793 344 -79 16 -261 17
-2650 18 -1411 1 -2581 0 -2600 -2z m4120 -1817 c652 -109 1187 -564 1394
-1187 69 -206 80 -286 80 -554 0 -263 -10 -339 -75 -541 l-30 -93 25 -39 c80
-127 162 -345 193 -512 26 -145 24 -402 -5 -547 -43 -216 -135 -432 -259 -606
-74 -105 -245 -276 -350 -350 -159 -113 -358 -204 -538 -245 -185 -43 -208
-43 -2190 -40 l-1900 3 -108 23 c-626 133 -1086 596 -1209 1215 -31 159 -31
405 0 564 93 469 386 861 803 1072 307 156 628 204 980 145 l35 -6 53 103
c149 295 390 533 686 678 190 94 368 142 576 157 l94 7 55 75 c71 98 234 261
335 337 264 198 563 318 890 355 105 12 358 4 465 -14z"/>
<path d="M2498 3 c1376 -2 3628 -2 5005 0 1376 1 250 2 -2503 2 -2753 0 -3879
-1 -2502 -2z"/>
</g>
</svg>
